<svg width="17" height="20" viewBox="0 0 17 20" fill="none" xmlns="http://www.w3.org/2000/svg">
<path d="M15.5751 7.0792C14.9681 7.45065 14.4653 7.97003 14.1138 8.58874C13.7622 9.20745 13.5734 9.90525 13.5651 10.6168C13.5675 11.4176 13.8047 12.2001 14.2475 12.8674C14.6902 13.5347 15.319 14.0575 16.0559 14.371C15.7653 15.3084 15.3354 16.1967 14.7804 17.0061C13.9863 18.1492 13.156 19.2923 11.8926 19.2923C10.6292 19.2923 10.3043 18.5583 8.84826 18.5583C7.42826 18.5583 6.92306 19.3164 5.76826 19.3164C4.61346 19.3164 3.80716 18.2575 2.88066 16.958C1.65669 15.1375 0.984019 13.0026 0.943359 10.8093C0.943359 7.1993 3.28976 5.2863 5.59996 5.2863C6.82736 5.2863 7.84996 6.0925 8.61996 6.0925C9.35396 6.0925 10.4971 5.2382 11.8929 5.2382C12.6105 5.21962 13.3217 5.37783 13.9639 5.69887C14.606 6.01991 15.1593 6.49394 15.5751 7.0792ZM8.71646 5.0336C8.63167 5.03334 8.54708 5.02531 8.46376 5.0096C8.44023 4.8988 8.42813 4.78587 8.42766 4.6726C8.46782 3.74134 8.82923 2.85273 9.45046 2.1578C10.1477 1.35691 11.125 0.853193 12.1819 0.75C12.207 0.872718 12.2191 0.997743 12.218 1.123C12.195 2.07288 11.8467 2.9861 11.2313 3.71C10.9237 4.08955 10.5421 4.40261 10.1098 4.63014C9.67752 4.85768 9.20346 4.99495 8.71646 5.0336Z" fill="white" fill-opacity="0.8"/>
</svg>
